<svg width="150" height="27" viewBox="0 0 150 27" fill="none" xmlns="http://www.w3.org/2000/svg">
<path d="M116.828 17.7762V19.8666H115.923C114.522 19.8666 113.596 19.0261 113.596 17.4745C113.596 15.9229 114.501 15.0609 115.923 15.0609H117.776V13.9727H115.848C113.693 13.9727 112.281 15.2764 112.281 17.4745C112.281 19.6726 113.693 20.9548 115.848 20.9548H118.089V17.7762H116.818H116.828Z" fill="black"/>
<path d="M103.508 4.6875H105.889C108.044 4.6875 109.456 5.96972 109.456 8.16781C109.456 10.3659 108.044 11.6697 105.889 11.6697H103.508V4.6875ZM105.824 10.5814C107.247 10.5814 108.152 9.74096 108.152 8.16781C108.152 6.59467 107.225 5.77577 105.824 5.77577H104.779V10.5814H105.824Z" fill="black"/>
<path d="M113.356 6.54297C114.886 6.54297 116.125 7.63124 116.125 9.17206C116.125 10.7129 114.897 11.8012 113.367 11.8012C111.837 11.8012 110.598 10.7237 110.598 9.17206C110.598 7.62047 111.826 6.54297 113.356 6.54297ZM113.356 10.7344C114.164 10.7344 114.843 10.1095 114.843 9.17206C114.843 8.23464 114.164 7.60969 113.356 7.60969C112.548 7.60969 111.858 8.24541 111.858 9.17206C111.858 10.0987 112.537 10.7344 113.356 10.7344Z" fill="black"/>
<path d="M117.516 6.66149H118.712V7.24334C118.712 7.42652 118.69 7.58814 118.69 7.58814H118.712C118.959 7.09249 119.563 6.54297 120.349 6.54297C121.136 6.54297 121.61 6.89854 121.815 7.57737H121.836C122.117 7.03862 122.763 6.54297 123.55 6.54297C124.595 6.54297 125.198 7.13559 125.198 8.45014V11.6826H123.948V8.68719C123.948 8.11611 123.841 7.68512 123.259 7.68512C122.623 7.68512 122.192 8.19154 122.052 8.82726C121.998 9.02121 121.998 9.23671 121.998 9.47376V11.6826H120.748V8.68719C120.748 8.14844 120.662 7.68512 120.069 7.68512C119.423 7.68512 118.992 8.19154 118.841 8.83804C118.787 9.02121 118.787 9.24749 118.787 9.47376V11.6826H117.537V6.66149H117.516Z" fill="black"/>
<path d="M129.088 6.54297C130.532 6.54297 131.307 7.59892 131.307 8.92424C131.307 9.07509 131.275 9.40911 131.275 9.40911H127.816C127.892 10.2819 128.571 10.7344 129.325 10.7344C130.133 10.7344 130.769 10.1849 130.769 10.1849L131.254 11.0792C131.254 11.0792 130.489 11.8012 129.239 11.8012C127.579 11.8012 126.545 10.6051 126.545 9.17206C126.545 7.63124 127.601 6.54297 129.099 6.54297H129.088ZM130.047 8.54711C130.025 7.86829 129.605 7.50194 129.055 7.50194C128.42 7.50194 127.978 7.90061 127.859 8.54711H130.058H130.047Z" fill="black"/>
<path d="M132.891 10.1849C132.891 10.1849 133.441 10.7344 134.26 10.7344C134.615 10.7344 134.917 10.5728 134.917 10.2819C134.917 9.53841 132.482 9.63538 132.482 8.01914C132.482 7.08172 133.322 6.54297 134.4 6.54297C135.477 6.54297 136.081 7.11404 136.081 7.11404L135.617 8.04069C135.617 8.04069 135.154 7.60969 134.389 7.60969C134.066 7.60969 133.753 7.74977 133.753 8.06224C133.753 8.77339 136.189 8.68719 136.189 10.2927C136.189 11.1331 135.456 11.8012 134.271 11.8012C133.021 11.8012 132.32 11.0685 132.32 11.0685L132.891 10.1957V10.1849Z" fill="black"/>
<path d="M137.795 7.72811H137.148V6.73681H137.827V5.29297H139.045V6.73681H140.187V7.72811H139.045V9.67838C139.045 10.5081 139.691 10.6266 140.036 10.6266C140.176 10.6266 140.262 10.605 140.262 10.605V11.6933C140.262 11.6933 140.112 11.7256 139.875 11.7256C139.174 11.7256 137.784 11.5209 137.784 9.84001V7.73889L137.795 7.72811Z" fill="black"/>
<path d="M141.684 4.6875H142.923V5.79732H141.684V4.6875ZM141.684 6.65932H142.933V11.6805H141.684V6.65932Z" fill="black"/>
<path d="M147.07 6.53812C148.374 6.53812 148.999 7.28159 148.999 7.28159L148.449 8.13281C148.449 8.13281 147.932 7.59407 147.145 7.59407C146.219 7.59407 145.615 8.29444 145.615 9.14566C145.615 9.99688 146.229 10.7188 147.178 10.7188C148.029 10.7188 148.654 10.0831 148.654 10.0831L149.139 10.9666C149.139 10.9666 148.417 11.7855 147.07 11.7855C145.41 11.7855 144.344 10.6111 144.344 9.15644C144.344 7.70182 145.41 6.52734 147.07 6.52734V6.53812Z" fill="black"/>
<path d="M121.762 15.832C123.205 15.832 123.981 16.888 123.981 18.2133C123.981 18.3642 123.949 18.6982 123.949 18.6982H120.49C120.566 19.5709 121.244 20.0235 121.999 20.0235C122.807 20.0235 123.443 19.474 123.443 19.474L123.927 20.3683C123.927 20.3683 123.162 21.0902 121.912 21.0902C120.253 21.0902 119.219 19.8942 119.219 18.4611C119.219 16.9203 120.275 15.832 121.772 15.832H121.762ZM122.721 17.8362C122.699 17.1574 122.279 16.791 121.729 16.791C121.094 16.791 120.652 17.1897 120.533 17.8362H122.731H122.721Z" fill="black"/>
<path d="M125.316 15.9506H126.512V16.5324C126.512 16.7156 126.491 16.8772 126.491 16.8772H126.512C126.728 16.457 127.277 15.832 128.29 15.832C129.4 15.832 130.036 16.4139 130.036 17.7392V20.9717H128.797V17.9978C128.797 17.3836 128.635 16.9742 127.999 16.9742C127.364 16.9742 126.836 17.3944 126.653 17.9978C126.588 18.2025 126.566 18.4288 126.566 18.6658V20.9717H125.316V15.9506Z" fill="black"/>
<path d="M133.84 15.832C135.284 15.832 136.059 16.888 136.059 18.2133C136.059 18.3642 136.027 18.6982 136.027 18.6982H132.568C132.644 19.5709 133.323 20.0235 134.077 20.0235C134.885 20.0235 135.521 19.474 135.521 19.474L136.006 20.3683C136.006 20.3683 135.241 21.0902 133.991 21.0902C132.331 21.0902 131.297 19.8942 131.297 18.4611C131.297 16.9203 132.353 15.832 133.851 15.832H133.84ZM134.799 17.8362C134.777 17.1574 134.357 16.791 133.807 16.791C133.172 16.791 132.73 17.1897 132.611 17.8362H134.81H134.799Z" fill="black"/>
<path d="M137.395 15.9465H138.591V16.8085C138.591 16.9917 138.569 17.1641 138.569 17.1641H138.591C138.817 16.4422 139.42 15.8711 140.185 15.8711C140.304 15.8711 140.412 15.8926 140.412 15.8926V17.121C140.412 17.121 140.282 17.0994 140.121 17.0994C139.593 17.0994 138.989 17.4011 138.752 18.1554C138.677 18.4032 138.644 18.6726 138.644 18.9743V20.9569H137.395V15.9357V15.9465Z" fill="black"/>
<path d="M144.096 17.8146H144.268V17.75C144.268 17.0927 143.859 16.8664 143.309 16.8664C142.587 16.8664 141.93 17.3513 141.93 17.3513L141.456 16.457C141.456 16.457 142.232 15.832 143.428 15.832C144.742 15.832 145.518 16.5647 145.518 17.8254V20.9609H144.365V20.5515C144.365 20.3575 144.387 20.1959 144.387 20.1959H144.365C144.365 20.1959 143.977 21.0794 142.835 21.0794C141.941 21.0794 141.133 20.5191 141.133 19.5171C141.133 17.9224 143.288 17.8146 144.107 17.8146H144.096ZM143.137 20.1097C143.794 20.1097 144.268 19.3985 144.268 18.7951V18.6766H144.053C143.417 18.6766 142.383 18.7628 142.383 19.4632C142.383 19.7972 142.631 20.1097 143.137 20.1097Z" fill="black"/>
<path d="M147.038 13.9727H148.277V19.2093C148.277 19.7588 148.46 19.8989 148.784 19.8989C148.881 19.8989 148.967 19.8989 148.967 19.8989V20.9872C148.967 20.9872 148.784 21.0195 148.568 21.0195C147.879 21.0195 147.027 20.8471 147.027 19.4032V13.9834L147.038 13.9727Z" fill="black"/>
<path d="M85.9243 26.3008C78.7589 26.3008 72.9297 20.4715 72.9297 13.3062C72.9297 6.14081 78.7589 0.300781 85.9243 0.300781C93.0897 0.300781 98.9189 6.13004 98.9189 13.2954C98.9189 20.4607 93.0897 26.29 85.9243 26.29V26.3008ZM85.9243 1.583C79.4593 1.583 74.2011 6.84119 74.2011 13.3062C74.2011 19.7712 79.4593 25.0293 85.9243 25.0293C92.3893 25.0293 97.6475 19.7712 97.6475 13.3062C97.6475 6.84119 92.3893 1.583 85.9243 1.583Z" fill="#1B9DD9"/>
<path d="M94.9954 12.6578C94.9954 12.5501 94.9092 12.4531 94.7907 12.4531H93.627C93.5192 12.4531 93.4223 12.5393 93.4223 12.6578V16.3644H92.9159C91.7198 16.3644 90.804 15.8903 90.276 15.0607H88.4766C89.2416 16.8816 91.0841 17.8298 92.9159 17.8298H94.7045C94.7045 17.8298 94.7368 17.8298 94.7476 17.8298C94.8015 17.8298 94.8446 17.8191 94.8877 17.7867C94.9415 17.7544 94.9846 17.6898 94.9846 17.6143V12.6471L94.9954 12.6578Z" fill="black"/>
<path d="M76.8516 13.8328C76.8516 13.9406 76.9378 14.0375 77.0563 14.0375H78.22C78.3277 14.0375 78.4247 13.9513 78.4247 13.8328V10.234H78.9311C80.1595 10.234 81.0969 10.7296 81.6141 11.6024H83.4027C82.6593 9.72756 80.7844 8.75781 78.9311 8.75781H77.1425C77.1425 8.75781 77.1102 8.75781 77.0994 8.75781C76.9701 8.75781 76.8731 8.85479 76.8731 8.98409C76.8731 8.98409 76.8731 9.01641 76.8731 9.02719V13.8328H76.8516Z" fill="black"/>
<path d="M81.6033 15.0703C81.0538 15.8569 80.0733 16.3741 78.9204 16.3741H77.0563C76.9485 16.3741 76.8516 16.4603 76.8516 16.5788V17.1068V17.6348C76.8516 17.7425 76.9378 17.8395 77.0563 17.8395H78.9204C81.0861 17.8395 82.7886 16.7297 83.4351 15.0703H81.5926H81.6033Z" fill="black"/>
<path d="M90.2018 11.5907C90.7406 10.7718 91.7534 10.2223 92.9279 10.2223H94.792C94.8997 10.2223 94.9967 10.1361 94.9967 10.0175V8.95082C94.9967 8.84307 94.9105 8.74609 94.792 8.74609H92.9279C90.7298 8.74609 89.0166 9.87746 88.3809 11.5907H90.2018Z" fill="black"/>
<path d="M89.556 12.5818H86.6359V9.66176C86.6359 9.55401 86.5497 9.45703 86.4312 9.45703H85.4076C85.2998 9.45703 85.2029 9.54323 85.2029 9.66176V12.5818H82.2829C82.1751 12.5818 82.0781 12.668 82.0781 12.7865V13.8101C82.0781 13.9179 82.1643 14.0148 82.2829 14.0148H85.2029V16.9349C85.2029 17.0426 85.2891 17.1396 85.4076 17.1396H86.4312C86.539 17.1396 86.6359 17.0534 86.6359 16.9349V14.0148H89.556C89.6637 14.0148 89.7607 13.9286 89.7607 13.8101V12.7865C89.7607 12.6787 89.6745 12.5818 89.556 12.5818Z" fill="#1B9DD9"/>
<path d="M104.5 17.2045V17.1829C104.5 17.1829 103.627 16.8489 103.627 15.6852C103.627 14.4676 104.607 13.875 105.793 13.875C106.224 13.875 106.698 13.9935 106.698 13.9935L106.396 14.9848C106.396 14.9848 106.159 14.9309 105.943 14.9309C105.362 14.9309 104.888 15.2542 104.888 15.8468C104.888 16.2455 105.114 16.7627 105.933 16.7627H107.032V15.8684H108.26V16.7627H109.154V17.851H108.26V18.6699C108.26 20.0706 107.344 21.008 105.793 21.008C104.241 21.008 103.336 20.1029 103.336 18.95C103.336 18.2065 103.778 17.4846 104.51 17.2368L104.5 17.2045ZM105.793 19.8443C106.568 19.8443 107.032 19.4133 107.032 18.5837V17.8402H105.868C105.103 17.8402 104.607 18.1742 104.607 18.8423C104.607 19.3918 105.081 19.8443 105.793 19.8443Z" fill="#1B9DD9"/>
<path d="M0.888672 11.1523H3.10832C4.18581 11.1523 4.94006 11.9066 4.94006 13.0272C4.94006 14.1478 4.18581 14.9236 3.10832 14.9236H1.93384V16.9062H0.888672V11.1523ZM2.91437 14.0077C3.51776 14.0077 3.88411 13.6198 3.88411 13.0164C3.88411 12.413 3.52854 12.0467 2.93592 12.0467H1.94462V14.0077H2.92514H2.91437Z" fill="black"/>
<path d="M7.07422 11.1523H8.92751C9.55246 11.1523 9.83261 11.2062 10.0912 11.314C10.6623 11.5726 11.0286 12.1221 11.0286 12.8871C11.0286 13.5767 10.6623 14.2124 10.0589 14.4603V14.4818C10.0589 14.4818 10.1451 14.568 10.2528 14.762L11.4381 16.9062H10.2744L9.13224 14.762H8.13017V16.9062H7.08499V11.1523H7.07422ZM9.05681 13.8461C9.61711 13.8461 9.96191 13.5121 9.96191 12.941C9.96191 12.3699 9.72486 12.0467 8.90596 12.0467H8.10862V13.8461H9.04604H9.05681Z" fill="black"/>
<path d="M16.1673 11.0547C17.8589 11.0547 19.1411 12.3477 19.1411 13.9855C19.1411 15.6233 17.8589 17.0025 16.1673 17.0025C14.4756 17.0025 13.1934 15.6771 13.1934 13.9855C13.1934 12.2938 14.4756 11.0547 16.1673 11.0547ZM16.1673 16.0435C17.2232 16.0435 18.0636 15.1707 18.0636 13.9855C18.0636 12.8002 17.2232 12.0029 16.1673 12.0029C15.1113 12.0029 14.2709 12.8433 14.2709 13.9855C14.2709 15.1276 15.1113 16.0435 16.1673 16.0435Z" fill="black"/>
<path d="M20.6397 11.1523H21.7711L23.0317 14.902C23.1502 15.2361 23.2472 15.7425 23.2472 15.7425H23.258C23.258 15.7425 23.3657 15.2361 23.4735 14.902L24.7449 11.1523H25.8655L23.7644 16.9062H22.73L20.6289 11.1523H20.6397Z" fill="black"/>
<path d="M27.8164 11.1523H28.8616V16.9062H27.8164V11.1523Z" fill="black"/>
<path d="M31.5332 11.1523H33.4942C35.2721 11.1523 36.425 12.2083 36.425 14.0185C36.425 15.8287 35.2613 16.9062 33.4942 16.9062H31.5332V11.1523ZM33.4404 16.0011C34.6041 16.0011 35.3583 15.3115 35.3583 14.0185C35.3583 12.7255 34.5933 12.0467 33.4404 12.0467H32.5784V16.0011H33.4404Z" fill="black"/>
<path d="M38.7305 11.1514H42.1785V12.0457H39.7756V13.5542H41.7151V14.4485H39.7756V16.0001H42.3078V16.8945H38.7305V11.1406V11.1514Z" fill="black"/>
<path d="M44.6016 11.1523H46.5626C48.3405 11.1523 49.4934 12.2083 49.4934 14.0185C49.4934 15.8287 48.3297 16.9062 46.5626 16.9062H44.6016V11.1523ZM46.5087 16.0011C47.6724 16.0011 48.4267 15.3115 48.4267 14.0185C48.4267 12.7255 47.6617 12.0467 46.5087 12.0467H45.6467V16.0011H46.5087Z" fill="black"/>
<path d="M54.9785 11.1523H57.0365C58.0709 11.1523 58.8144 11.6911 58.8144 12.6393C58.8144 13.178 58.5558 13.6306 58.114 13.8676V13.8892C58.7498 14.0724 59.0407 14.6542 59.0407 15.2468C59.0407 16.3998 58.114 16.917 57.0581 16.917H54.9785V11.1631V11.1523ZM57.0365 13.5013C57.4891 13.5013 57.7477 13.178 57.7477 12.7686C57.7477 12.3591 57.4999 12.0574 57.015 12.0574H56.0237V13.5121H57.0365V13.5013ZM57.1443 16.0011C57.683 16.0011 57.974 15.6563 57.974 15.1714C57.974 14.6865 57.6615 14.3417 57.1443 14.3417H56.0237V16.0011H57.1443Z" fill="black"/>
<path d="M62.5215 14.4916L60.6035 11.1406H61.7888L62.6831 12.8323C62.8663 13.1879 63.0279 13.6081 63.0279 13.5973H63.0387C63.0387 13.5973 63.2003 13.1879 63.3835 12.8323L64.2778 11.1406H65.463L63.5451 14.4916V16.8945H62.4999V14.4916H62.5215Z" fill="black"/>
</svg>
