<svg width="159" height="43" viewBox="0 0 159 43" fill="none" xmlns="http://www.w3.org/2000/svg">
<g clip-path="url(#clip0_770_26041)">
<path d="M157.607 21.1246H158.092L157.748 17.0319C157.438 13.3771 155.266 7.24564 144.203 7.24564C138.538 7.24564 134.303 9.31654 132.329 12.7874C131.996 12.3585 131.644 11.948 131.264 11.5636C128.484 8.73907 124.684 7.24564 120.277 7.24564C115.247 7.24564 111.021 9.31807 108.359 12.7108C106.528 9.20625 103.1 7.24564 98.4562 7.24564C97.6888 7.24564 96.9566 7.32682 96.2505 7.46161V0.300781H80.875V7.82004H71.2098C70.1253 7.45549 68.9888 7.24411 67.8338 7.24411C64.5881 7.24411 61.8034 8.29181 59.6835 10.1529V7.81851H33.8387V0.300781H17.4109V9.62288H16.5715V0.300781H0.140625V35.4708H16.5684V24.7671H17.4078V35.4708H33.8356V33.0108C35.9249 35.1583 38.7785 36.0483 41.5341 36.0483C43.147 36.0483 44.5454 35.8553 45.8061 35.4723H56.9019C58.3892 39.0765 62.4605 42.3008 70.3137 42.3008C78.1669 42.3008 81.8706 39.0964 83.3564 35.4723H109.866V32.4012C112.487 34.7095 116.094 36.0483 120.312 36.0483C125.585 36.0483 129.823 34.3006 132.439 31.2233C134.689 34.3128 138.761 36.0483 144.164 36.0483C154.77 36.0483 158.549 30.4712 158.549 25.2526C158.549 23.6168 158.189 22.2658 157.605 21.1246H157.607Z" fill="white"/>
<path d="M69.8947 16.6871C67.5251 16.6488 66.8113 18.6431 66.8113 21.2532C66.8113 23.2475 67.7901 25.1269 69.8947 25.1667C72.3026 25.2816 73.2063 23.1724 73.2063 21.0234C73.2063 18.8744 72.3792 16.6886 69.8947 16.6886V16.6871ZM120.534 15.8431C118.201 15.8431 116.885 17.1849 116.885 19.3339H123.995C123.995 17.4928 122.379 15.8431 120.535 15.8431H120.534ZM30.0177 31.649H21.1398V20.9453H12.7505V31.649H3.87109V4.02734H12.749V13.3494H21.1383V4.02734H30.0162V31.649H30.0177ZM55.8641 31.649H48.6022V28.6943C46.6461 31.456 44.7269 32.2234 41.4919 32.2234C37.203 32.2234 34.4199 29.5383 34.4199 23.7836V11.5466H42.244V22.402C42.244 25.1652 43.1844 26.0475 45.0654 26.0475C47.3232 26.0475 48.0385 24.3212 48.0385 21.2133V11.5466H55.8641V31.649ZM80.6551 27.7354C80.6551 33.7582 79.9781 38.4775 70.2715 38.4775C63.3129 38.4775 60.3766 35.6376 60.0013 32.6829H67.8637C67.8637 32.9127 68.0138 33.2589 68.3523 33.5652C68.6908 33.8715 69.256 34.0645 70.0448 34.0645C72.3026 34.0645 73.2063 33.0291 73.2063 30.151V28.5013C72.0774 29.6516 70.3849 30.6886 67.5634 30.6886C62.1089 30.6886 58.9857 26.3155 58.9857 21.175C58.9857 16.0346 61.3186 10.9707 67.7901 10.9707C70.1597 10.9707 72.3792 12.2374 73.77 14.1934V11.5466H80.6536V27.7354H80.6551ZM106.05 31.649H98.224V21.0234C98.224 19.0291 97.6987 17.2645 95.4776 17.2645C93.0698 17.2645 92.431 18.8376 92.431 21.4079V31.6505H84.607V4.02734H92.431V14.0801C94.0118 12.0459 95.7794 10.9722 98.4124 10.9722C103.605 10.9722 106.05 14.0801 106.05 19.605V31.6505V31.649ZM120.759 27.3525C122.001 27.3525 123.128 26.7766 123.694 25.588H131.179C129.825 30.5753 124.859 32.2249 120.269 32.2249C113.949 32.2249 109.056 28.5427 109.056 21.7908C109.056 15.0389 113.909 10.9722 120.23 10.9722C127.528 10.9722 131.931 16.1127 131.818 23.4022H116.882C116.882 25.781 118.686 27.354 120.756 27.354L120.759 27.3525ZM144.121 32.2249C139.608 32.2249 134.641 30.805 134.226 25.3965H141.675C141.675 26.2022 141.976 26.8149 142.503 27.2376C142.992 27.6206 143.669 27.8503 144.421 27.8503C145.623 27.8503 146.904 27.4674 146.904 26.0475C146.904 22.8247 134.826 25.395 134.826 17.6076C134.826 12.4672 140.056 10.9707 144.156 10.9707C148.256 10.9707 153.486 11.9694 153.938 17.3013H146.829C146.754 16.6488 146.49 16.1893 146.077 15.8431C145.662 15.4969 145.098 15.3438 144.496 15.3438C143.142 15.3438 142.277 15.765 142.277 16.7621C142.277 19.5637 154.73 17.6827 154.73 25.202C154.73 29.3836 151.344 32.2219 144.121 32.2219V32.2249Z" fill="#E20613"/>
</g>
<defs>
<clipPath id="clip0_770_26041">
<rect width="158.41" height="42" fill="white" transform="translate(0.140625 0.300781)"/>
</clipPath>
</defs>
</svg>
