<svg
  fill="none"
  xmlns="http://www.w3.org/2000/svg"
  viewBox="0 0 36 36"
>
  <path
    fillRule="evenodd"
    clipRule="evenodd"
    d="M10.246 10.246c-3.538 3.538-4.154 8.895-1.843 13.066a1.267 1.267 0 0 1-2.217 1.229c-2.845-5.134-2.09-11.728 2.268-16.087C12.813 4.095 19.407 3.34 24.54 6.186a1.267 1.267 0 0 1-1.23 2.217c-4.17-2.311-9.527-1.695-13.065 1.843Zm.72 17.845a1.267 1.267 0 0 1 1.722-.494c4.17 2.311 9.528 1.695 13.066-1.843 3.538-3.538 4.154-8.895 1.843-13.066a1.267 1.267 0 0 1 2.217-1.229c2.844 5.134 2.09 11.728-2.268 16.087-4.359 4.359-10.953 5.112-16.086 2.268a1.267 1.267 0 0 1-.495-1.723Z"
    fill="#FFFFFF"
  />
</svg>
